<svg id="Layer_1" data-name="Layer 1" xmlns="http://www.w3.org/2000/svg" preserveAspectRatio="none" viewBox="0 0 792 612">
  <defs>
    <style>
      .cls-1, .cls-2 {
        fill: #1a1818;
      }

      .cls-2 {
        stroke: #1a1818;
        stroke-miterlimit: 10;
      }
    </style>
  </defs>
  <title>3bf4a4ac-095a-4628-bd3c-f7fa13ff65d5</title>
  <g>
    <g>
      <path class="cls-1" d="M52.9,376.9c-4.6,8.3,3.6,24.5,9.7,32.9s10.4,10.6,11.3,18c.6,5.3-.1,6.1,1.4,10.4,2.6,7.5,10.2,14.3,18.4,15.6,6.2,1,6.2-2.8,15.3-4.1,11.1-1.6,17.7,2.9,19.5-.3s-4.6-8.1-3.8-16.3c.1-.7.7-6.1,4.7-9.2s6.9-.5,12.8-2.9,10.5-6.8,9.5-10.6-6.6-6-10-4.6-2.3,5.2-6,7.2-4-.2-8.4.4-10.8,4.2-10.4,7,3.2,2.1,4.7,4.9-1.2,10.7-4.7,14.1c-6.1,5.9-17.4,6.9-23.7,1.4s-2.4-12.5-9.7-21.4c-5-6.1-8-4.3-14.7-11.2S55.8,390,58.6,385.7s7.1-.6,10.6-4.9c1.9-2.3,3-6.3,1.6-8.2S56.6,370.3,52.9,376.9Z"/>
      <path class="cls-1" d="M47.7,373.9c-6.5,13.4,3.1,30.4,11.3,41,2.5,3.2,5.7,6.1,7.6,9.8s1.3,6.6,1.7,10.1c.9,8.2,6.1,15.4,12.7,20.1s13.6,6.6,20.3,3.8c2.9-1.2,5.3-2.5,8.4-3a40.2,40.2,0,0,1,11.8.5c5.9.9,13.1-.4,13.1-8,0-2.9-1.5-5.4-2.7-8a15.6,15.6,0,0,1-1.5-4.3,13,13,0,0,1,0-2.7c-.1,1.2-.1.5.1-.3.8-2.9,1.8-4.4,4.8-4.6a26.9,26.9,0,0,0,12-3.2c6.3-3.5,13-11,8.8-18.5s-13.5-9.3-19.3-4.8c-1.5,1.1-3.6,5.8-4.3,6.1l-3.4-.4a22.7,22.7,0,0,0-6.9,1.1c-6.6,2.2-16,9.7-9.6,17.1,2.1,2.5,4.1,1.9,2.6,5.4a12,12,0,0,1-7.6,6.8,12.5,12.5,0,0,1-9.2-.4c-3.2-1.6-3.6-4.4-4.3-7.5-1.8-7.9-5.5-15.2-12.6-19.7-3.2-2-6.3-3.4-9-6.2a36.2,36.2,0,0,1-7.9-11.7c0-.1-1.1-4.4-1-4.3l-1.5,1.9,1-.2a12.1,12.1,0,0,0,3.2-.5,14.2,14.2,0,0,0,9.2-7.7c3.9-8,0-16-8.9-16.7a20.8,20.8,0,0,0-19.1,9.2c-4.2,6.5,6.2,12.6,10.4,6.1a7.8,7.8,0,0,1,5.3-3.1c.8-.2,1.8,0,2.6-.2l.9.2a1,1,0,0,1-.9-.7q-.8-1.3-1-.1c-.1,0-.7,1.1-.9,1.2a5.9,5.9,0,0,1-1.9.5c-1.2.3-2.3.3-3.5.7a9.8,9.8,0,0,0-6.3,6.3c-3.7,11.8,9.1,27.2,18.2,33,2,1.3,4.3,2.1,6.1,3.6a17.4,17.4,0,0,1,5.4,9.3c1.6,6.2,2.7,11.7,8.1,15.7,10.8,7.9,26.9,3.9,34-6.9,3.6-5.4,5.5-13.3,1-18.7-.8-1-2.1-2.6-3.3-2.9s-1.5-2.4,0,1.6.6,2,2.8,1,5.8-.5,8.9-.7a11.7,11.7,0,0,0,7.9-3.9,15.5,15.5,0,0,0,2-3,8.3,8.3,0,0,1,.9-1.8c-.6.5-1,.8.1.8s.9,1,1-.3-1,1-.6.4a12.3,12.3,0,0,1-3.6,2.8c-3.2,1.7-6.2,1.2-9.6,1.8-13.7,2.5-15.2,18.8-10.4,29.1a13.8,13.8,0,0,0,1.2,2.6h0a4,4,0,0,1,1.6-1.8c3.5-4,1.7-1.1.8-1.8s-7.2-1.1-9.4-1.2a39.6,39.6,0,0,0-10.8,1c-2.9.7-5.3,2.4-8.1,3.2-5.9,1.7-12.9-5-15.2-9.9-1.3-2.8-1.2-5.4-1.5-8.3a25.3,25.3,0,0,0-3.7-12c-4.2-6.5-9.8-11.8-13.6-18.8-2.5-4.6-7.2-13.3-4.6-18.7C61.4,373,51.1,366.9,47.7,373.9Z"/>
    </g>
    <path class="cls-2" d="M89.4,372.7"/>
    <path class="cls-2" d="M119.8,338.4"/>
    <path class="cls-2" d="M145.9,294.6"/>
    <path class="cls-2" d="M140.9,371.3"/>
    <path class="cls-2" d="M106.6,338.3"/>
    <path class="cls-2" d="M154.9,348.9c-2.9-.7-2.5-5.7-6.6-12.5-5.7-9.5-15.4-13.7-16-13s5.3,4.5,4.5,9.3-4.7,5.7-6.7,6.8-10.2,5.3-14.7.9-2.8-10.5.4-13.2,11.1-.6,11.2-1.4-1.9-1-4.7-2.2c-4.8-2.2-4.7-3.6-7.3-4.2-6.4-1.5-9.9,2.2-12.7.4s-2.8-5.8-.7-7.8,13.4-.4,18.5,1.3c6.9,2.3,11.2,5,12.8,3.4s-1.1-4.8.7-7.3,5.3-2.5,7.7-1.1,1.4,7.1,5.1,9.8c1.9,1.4,4.3,1.3,6.9,1.1,7-.4,10.5-4.4,11.7-3.3s-.7,5.5-4,8.7-9.6,3.8-9.9,5.9,10,4.6,10.9,10.1S157.7,349.6,154.9,348.9Z"/>
    <path class="cls-2" d="M134.1,353.8"/>
    <path class="cls-2" d="M132.9,342.3"/>
    <path class="cls-2" d="M192.8,386.8c.3,2.5-4.8,5.6-9.6,6.7-6.4,1.5-8-1.6-13.8-.3s-9.5,7.6-12.7,6.4-3.5-5-2.7-8.3c1.8-7.4,13.3-6.4,15.7-12.7,3.3-8.9-15.9-20-13-26.1s23.7-2,23.9.6-9.7,1.8-11.2,7,2.6,9.4,6.4,9.9,7.2-5.3,8.6-4.4-4,9.7-.6,15.3S192.5,384.2,192.8,386.8Z"/>
    <path class="cls-2" d="M77.3,315.1c-5.1.4-12.9,3.3-14.6,8.9-2.1,7.2,8.1,11.5,6.6,21.1-.9,5.5-4.8,7.6-3.8,13,.7,3.9,3.5,7,4.6,6.7s-1.8-9.3,2.5-13.4c2.3-2.2,4.4-.6,6.7-2.6,4.9-4.3-1-15,2.6-17.6s10.5,5.1,13.9,2.6,1.5-5.4.9-7.5C94.7,319.4,85.7,314.4,77.3,315.1Z"/>
    <path class="cls-2" d="M174.2,315.8"/>
  </g>
</svg>
